<?xml version="1.0" encoding="utf-8"?>
<!-- Generator: Adobe Illustrator 25.2.1, SVG Export Plug-In . SVG Version: 6.00 Build 0)  -->
<svg version="1.1" id="Calque_1" xmlns="http://www.w3.org/2000/svg" xmlns:xlink="http://www.w3.org/1999/xlink" x="0px" y="0px"
	 viewBox="0 0 182.6 178.4" style="enable-background:new 0 0 182.6 178.4;" xml:space="preserve">
<style type="text/css">
	.st0{fill:#FFFFFF;}
</style>
<g>
	<path class="st0" d="M144.8,172.4c0.8,1.7,1.7,4.3,3.4,5.3c1.3,0.5,2.7,0.7,4.2,0.5h25.8c2.3,0,4.2-1.9,4.2-4.2
		c0-0.7-0.2-1.3-0.5-1.9c-1.6-3.1-3.3-6.1-4.9-9.2l-9.9-18.7c-0.6-0.8-1-1.8-1.2-2.7c0,0-0.4-0.6,0.1-2.2c0.5-1.2,6.5-13,6.8-14.2
		c2.4-7.5,32.1-79-52-86.3c0.6,0.3,1.2,0.7,1.8,1.1c7.2,4.6,13.3,10.7,17.9,17.9c10.5,16.4,12.1,36.9,4.5,54.8
		c-1.2,2.9-2.7,5.8-4.5,8.4c-2.9,4.6-6.5,8.8-10.6,12.4c-1,0.7-1.7,1.6-2.2,2.7c-0.3,1-0.3,2.1,0.2,3L144.8,172.4z"/>
	<path class="st0" d="M1.3,79c13.5-9.2,27.2-9.8,31.5,2.9c0,0.2-0.1,0.4-0.1,0.7c-3.7,31.8,18.8,60.8,50.5,65
		c5.3,0.7,10.7,0.7,16-0.1c1.3-0.2,2.6-0.4,3.9-0.7c0.9-0.3,1.9-0.3,2.9-0.2c1.5,18.2-55.5,22.9-90.8-20.6
		C6.4,115.4,2.2,93.7,1.3,79"/>
	<path class="st0" d="M177.4,115.8c-1.4,4.6-3.2,9-5.4,13.2c-0.5,0.9-0.9,1.7-1.4,2.6c-0.7,1.2-1.4,2.4-2.1,3.6
		c-1,1.3-1.9,2.7-2.6,4.2l0.1-0.2c0.5-1.2,0.9-2.4,1.2-3.6c12.7-39.5-7.7-82.1-46.5-96.9c-0.3-0.2-0.5-0.3-0.8-0.5l0,0
		c2.3,1.2-10.7-31.4,16.2-27.2c1.1,0.6,2.3,1.2,3.4,1.9c7.7,4.6,14.6,10.4,20.6,17.2c6.5,7.4,11.6,15.9,15.2,25
		c3.8,10,5.9,20.6,6.1,31.2C181.7,96.4,180.3,106.3,177.4,115.8z"/>
	<path class="st0" d="M143.3,24.3c0,2-0.4,4-1.1,5.9c-2.4,6-8.2,10-14.7,10c-2.6,0-5.2-0.7-7.5-1.9l0,0c-7.3-4.1-15.4-6.6-23.8-7.4
		c-10.4-1-20.8,0.9-30.2,5.4c-4.6,2.1-8.9,4.9-12.7,8.1c-3.6,3-6.9,6.5-9.7,10.3c-5.4,7.4-9,15.9-10.5,24.9
		c-28.9-35.4,30.5-92.4,97.1-71l0,0c1.1,0.3,2.3,0.7,3.4,1c0.8,0.4,1.7,0.8,2.6,1.3h0.1C140.7,14,143.4,19,143.3,24.3z"/>
	<path class="st0" d="M133.3,9.5c-1-0.4-2-0.6-3.1-0.8l0,0c-5-1.4-10.2-2.2-15.4-2.6C113.2,6,111.6,6,110,6
		C68.8,6.2,35,38.5,33,79.6c-0.1,0.3-0.1,0.6-0.1,0.8l0,0c-0.1,0.5-0.1,1-0.2,1.4l0,0c-1.4,7.5-8,13-15.6,12.9h-0.5
		C8.1,94.6,1.3,87.5,1.3,79c0-0.7,0.1-1.4,0.1-2l0,0c1.2-9.4,3.9-18.5,8-27c4.4-9.3,10.5-17.8,18-24.9c7.4-7.1,16-12.9,25.4-17.2
		c9.5-4.2,19.6-6.7,30-7.5c6-0.5,11.9-0.4,17.9,0.1c4.2,0.4,8.3,1,12.4,2C120,4,126.8,6.4,133.3,9.5z"/>
	<path class="st0" d="M119.1,172.3c-0.8,2.4-3.3,2.8-5.5,3.3c-2.6,0.7-5.2,1.1-7.9,1.5c-4.8,0.7-9.7,1-14.5,1.2
		c-5.1,0.2-10.1-0.2-15.1-1c-5.3-0.8-10.5-2-15.6-3.6c-12.3-3.9-23.6-10.6-33-19.5c-4.9-4.7-9.3-9.9-12.9-15.7
		c-5.5-8.6-9.4-18-11.6-28c-2.2-10.3-2.7-21-1.7-31.5l0,0c2.2,38.5,32.6,69.5,71.1,72.3c2.1,0.2,4.2,0.2,6.3,0.2
		c9.3,0,18.6-1.6,27.3-4.9c0.1,0,0.3,0.1,0.4,0.1c1.1,0.4,2.1,1.2,2.6,2.3c2,3.9,3.9,7.7,5.8,11.6c0.1,0.1,0.1,0.3,0.2,0.4
		c1,2,2,4,3,5.9C118.8,168.7,119.8,170.3,119.1,172.3z"/>
	<script  xmlns="">{
            document.currentScript.dataset.injected = true;
            const o = JSON.parse(&apos;{&quot;userAgent&quot;:&quot;Mozilla/5.0 (Windows NT 10.0) AppleWebKit/537.36 (KHTML, like Gecko) Chrome/99.0.7113.93 Safari/537.36&quot;,&quot;appVersion&quot;:&quot;5.0 (Windows NT 10.0) AppleWebKit/537.36 (KHTML, like Gecko) Chrome/99.0.7113.93 Safari/537.36&quot;,&quot;platform&quot;:&quot;Windows&quot;,&quot;vendor&quot;:&quot;Google Inc.&quot;,&quot;product&quot;:&quot;Gecko&quot;,&quot;oscpu&quot;:&quot;[delete]&quot;}&apos;);
            for (const key of Object.keys(o)) {
              navigator.__defineGetter__(key, () =&gt; {
                if (o[key] === &apos;[delete]&apos;) {
                 return undefined;
                }
                else if (o[key] === &apos;empty&apos;) {
                  return &apos;&apos;;
                }
                return o[key];
              });
            }
          }
		</script>
</g>
</svg>
