<?xml version="1.0" encoding="utf-8"?>
<!-- Generator: Adobe Illustrator 26.2.1, SVG Export Plug-In . SVG Version: 6.00 Build 0)  -->
<svg version="1.1" id="Capa_1" xmlns="http://www.w3.org/2000/svg" xmlns:xlink="http://www.w3.org/1999/xlink" x="0px" y="0px"
	 viewBox="0 0 183.8 183.8" style="enable-background:new 0 0 183.8 183.8;" xml:space="preserve">
<style type="text/css">
	.st0{fill:#FFFFFF;}
</style>
<path class="st0" d="M30.5,26.7C17.5,39.2,10.1,56,9.7,74c-0.4,18,6.3,35.1,18.7,48.1c16.6,17.4,41.5,24.6,64.9,18.9
	c7.4-1.8,14.4-4.9,20.7-9l42,43.9l18.1-17.3l-42-43.8c7.9-11,12.3-24,12.6-37.8c0.4-18-6.3-35.1-18.7-48.1
	C109.3,11.4,84.5,4.2,61.1,9.9C49.6,12.7,39.1,18.5,30.5,26.7z M107.9,46c7.9,8.2,12,19,11.8,30.3c-0.2,11.3-4.9,21.9-13.1,29.8
	c-5.4,5.2-12,8.8-19.2,10.6c-14.7,3.6-30.4-0.9-40.9-11.9c-7.9-8.2-12-19-11.8-30.3c0.2-11.3,4.9-21.9,13.1-29.8
	c5.4-5.2,12-8.8,19.2-10.6C81.8,30.6,97.4,35.1,107.9,46z"/>
</svg>
